<svg width="440" height="440" viewBox="0 0 440 440" xmlns="http://www.w3.org/2000/svg" style="vector-effect: non-scaling-stroke;" stroke="null">
 <metadata stroke="null" id="metadata8">image/svg+xml</metadata>
 <defs stroke="null">
  <clipPath style="vector-effect: non-scaling-stroke;" stroke="null" clipPathUnits="userSpaceOnUse" id="clipPath18">
   <path style="vector-effect: non-scaling-stroke;" stroke="null" d="m0,2400l2400,0l0,-2400l-2400,0l0,2400z" id="path16"/>
  </clipPath>
 </defs>
 <g stroke="null">
  <title stroke="null">background</title>
  <rect stroke="null" fill="none" id="canvas_background" height="442" width="442" y="-1" x="-1"/>
 </g>
 <g stroke="null">
  <title stroke="null">Layer 1</title>
  <g stroke="null" id="g36">
   <path stroke="null" fill="#8e8e8e" fill-rule="nonzero" d="m72.209428,72.927658c-13.554,13.555 -13.55,35.532 0.003,49.084c13.555,13.555 35.527,13.555 49.082,0c13.554,-13.554 13.556,-35.528 0.001,-49.083c-13.552,-13.552 -35.531,-13.556 -49.086,-0.001m80.109,-28.781l30.078,30.077c2.235,2.235 2.233,5.893 -0.004,8.13c-27.546,27.547 5.915,71.091 26.087,91.262l73.722,73.722c9.825,9.825 9.825,25.756 0,35.58c-9.824,9.825 -25.756,9.825 -35.58,0l-73.723,-73.72c-20.171,-20.172 -63.715,-53.635 -91.262,-26.088c-2.237,2.236 -5.894,2.238 -8.129,0.004l-30.078,-30.079l5.648,-5.648l-2.013,-2.012l-5.647,5.649l-29.77,-29.77c-2.235,-2.236 -2.235,-5.896 0.001,-8.133l12.046,-12.045c-2.283,-20.238 4.331,-41.291 19.852,-56.812c15.521,-15.522 36.572,-22.137 56.812,-19.853l12.045,-12.045c2.238,-2.237 5.898,-2.237 8.133,-0.001l29.77,29.769l-5.628,5.628l2.011,2.013l5.629,-5.628z" id="path38"/>
  </g>
  <g stroke="null" id="g40">
   <path stroke="null" fill="#ff3232" fill-rule="nonzero" d="m396.119003,275.590744l-120.604,120.604c-1.543,1.543 -4.067,1.542 -5.61,-0.001l-5.611,-5.61c-1.54,-1.541 -1.541,-4.066 0,-5.607l120.606,-120.606c1.543,-1.543 4.069,-1.541 5.608,-0.001l5.611,5.611c1.543,1.543 1.545,4.066 0,5.61m-16.83,-16.83l-120.605,120.604c-1.543,1.543 -4.065,1.543 -5.607,0.001l-78.533,-78.534c-1.542,-1.541 -1.544,-4.066 -0.002,-5.608l120.606,-120.605c1.543,-1.544 4.069,-1.541 5.61,0l78.533,78.534c1.541,1.542 1.543,4.064 -0.002,5.608m39.268,39.267l-120.606,120.605c-1.541,1.541 -4.064,1.541 -5.607,-0.002l-11.22,-11.219c-1.543,-1.542 -1.543,-4.066 -0.002,-5.607l120.606,-120.606c1.543,-1.543 4.067,-1.543 5.61,0l11.219,11.219c1.542,1.543 1.542,4.067 0,5.61" id="path42"/>
  </g>
  <g stroke="null" id="g44">
   <path stroke="null" fill="#8e8e8e" fill-rule="nonzero" d="m281.039993,248.573166c-9.097,-9.097 -23.846,-9.097 -32.942,-0.001c-9.098,9.098 -9.097,23.848 0,32.943c9.096,9.098 23.844,9.098 32.942,0c9.097,-9.096 9.099,-23.845 0,-32.942" id="path46"/>
  </g>
 </g>
</svg>