<svg width="171" height="300" viewBox="0 30 171 270" xmlns="http://www.w3.org/2000/svg">

 <g>
  <title>background</title>
  <rect fill="none" id="canvas_background" height="402" width="582" y="-1" x="-1"/>
 </g>
 <g>
  <title>Layer 1</title>
  <path id="svg_2" d="m2.67,15.12c15.46,-4.09 30.88,-8.33 46.36,-12.37c12.33,45.53 24.34,91.16 36.73,136.68c2.53,10.01 5.28,19.97 7.93,29.95l-0.4,-0.04c-16.09,-1.49 -32.92,1.38 -46.48,10.56c-14.68,-54.94 -29.42,-109.86 -44.14,-164.78z" fill="#ad589d"/>
  <path id="svg_3" d="m121.787442,2.204884c15.4,4.27 30.9,8.23 46.31,12.51c-14.96,55.48 -29.73,111.01 -44.67,166.5c-8.72,-6.44 -19.22,-10.72 -30.05,-11.96l-0.14,-0.17c-0.05,-0.05 -0.14,-0.16 -0.18,-0.21l0.4,0.04c-2.65,-9.98 -5.4,-19.94 -7.93,-29.95c-0.04,-1.73 0.47,-3.4 0.89,-5.05c11.83,-43.89 23.44,-87.84 35.37,-131.71z" fill="#8d457f"/>
  <path id="svg_4" d="m93.29,169.34c0.04,0.05 0.13,0.16 0.18,0.21c-0.05,-0.05 -0.14,-0.16 -0.18,-0.21z" fill="#ad589d"/>
  <path id="svg_5" d="m41.77,194.34c9.7,-9.57 22.58,-16.04 36.27,-17.01c16.22,-1.7 33.16,3.34 45.28,14.39c11.7,10.08 19.52,24.71 20.43,40.22c1.67,17.31 -4.71,35.04 -17.08,47.27c-28.27,-28.32 -56.53,-56.65 -84.9,-84.87z" fill="#fdb23b"/>
  <path id="svg_6" d="m24.19,241.08c-1.46,-17.23 5.2,-34.7 17.58,-46.74c28.37,28.22 56.63,56.55 84.9,84.87c-9.96,10.07 -23.44,16.72 -37.66,17.54c-15.94,1.44 -32.44,-3.65 -44.34,-14.47c-11.93,-10.29 -19.84,-25.35 -20.48,-41.2z" fill="#e4a035"/>
 </g>
</svg>